# xmcd
#
# Track frame offsets: 
#        150
#        15223
#        33111
#        47624
#        52448
#        71154
#        76009
#        87010
#        106513
#        124912
#        145050
#        160782
#
# Disc length: 2322 seconds
#
# Revision: 2
# Processed by: cddbd v1.5.2PL0 Copyright (c) Steve Scherf et al.
# Submitted via: ExactAudioCopy v0.99pb5
#
DISCID=8a09100c
DTITLE=Cinelli Piergiorgio - Schìa le póce
DYEAR=2007
DGENRE=Folk/Rock
TTITLE0=Che Bel Casì
TTITLE1=Cocài
TTITLE2=Eritema
TTITLE3=Ga 'nsomèe
TTITLE4=Ghe Naràl
TTITLE5=Gras L'è Mèi
TTITLE6=I Quadrèi
TTITLE7=L'Osèl en Césa
TTITLE8=Me Fo 'l Molèta
TTITLE9=Önge
TTITLE10=Schìa Le Póce
TTITLE11=Söl Bìlico
EXTD=
EXTT0=
EXTT1=
EXTT2=
EXTT3=
EXTT4=
EXTT5=
EXTT6=
EXTT7=
EXTT8=
EXTT9=
EXTT10=
EXTT11=
PLAYORDER=
